
<svg viewBox="0 0 300 300" width="800" height="800" xmlns="http://www.w3.org/2000/svg" xmlns:xlink="http://www.w3.org/2000/xlink">                
<g style="color:#CDCD1E">
    <rect fill="#B4829B" x="0" y="0" width="320" height="320"></rect>
    <g fill="currentColor"><path d="M137.41 252.15s-.91-4.65-11.91-3.65-13 12-13 18 4 13 12 14c0 0 3 0 3-1 0 0-3.17-6.44.41-16.72 0 0 5.42-7.98 9.5-10.63zM194.5 244.5s-19 1-19 17 11 21 17 21 20-2 19-20-17-18-17-18z"/><path d="M181.5 247.5a39.32 39.32 0 0 0-24-4c-14 2-28 14-30 19s-3 9 0 17 3 20 1 22h68s.68-18.41-.66-19.2c0 0-21.34 1.2-20.34-19.8a13.88 13.88 0 0 1 6.67-13.88z"/></g><path d="M194.5 244.5s-19 1-19 17 11 21 17 21 20-2 19-20-17-18-17-18z" stroke="#000" stroke-miterlimit="10" fill="none"/><path d="M195.5 245.5s8 5 6 18-9.78 17.77-14.39 17.89c0 0 21.41 6.8 24.4-15.54 0-.01.99-20.35-16.01-20.35z" fill-opacity=".2"/><path d="M181.5 247.5a39.32 39.32 0 0 0-24-4c-14 2-28 14-30 19s-3 9 0 17 3 20 1 22h68s.68-18.41-.66-19.2c0 0-21.34 1.2-20.34-19.8a13.88 13.88 0 0 1 6.67-13.88z" stroke="#000" stroke-miterlimit="10" fill="none"/><path d="M195.5 282.5s7 11 6 19h12s2.5-15-7.25-23.5c0 0-2.75 4.5-10.75 4.5z" fill="#6d6e70" stroke="#000" stroke-miterlimit="10"/><path d="M211.55 285.39s.73 7.21-11.66 6.16" stroke="#000" stroke-miterlimit="10" fill="none"/><path d="M136.5 260.5a3.1 3.1 0 0 0-2 1c-1 1-3 5 0 5s4-1 4-3-1-3-2-3zM133.5 270.5a4.33 4.33 0 0 0-2 4c0 3 1 6 2 12s.67 14-1.67 15 6.67 0 6.67 0 4-16 0-25c0 0-2-7-5-6z" fill-opacity=".4" fill="#fff"/><path d="M161.5 253.5s9 2 11 10 2 28 2 28v12l22 1v-19a4.38 4.38 0 0 0-1-3s-22-1-20-21c0 0 0-9 7-13a35 35 0 0 0-14.06-5.07l.06 5.07a10.39 10.39 0 0 1-7 5z" fill-opacity=".2"/><path d="M141.34 249.41s3.16 11.09 16.16 11.09 19.07-10 19-15M144.5 301.5s2-12 1-18l23-1s1 17 0 19M137.41 252.15s-.91-4.65-11.91-3.65-13 12-13 18 4 13 12 14c0 0 3 0 3-1-4.21-6.17-3-19 9.91-27.35z" stroke="#000" stroke-miterlimit="10" fill="none"/><path d="M118.5 252.5s5-3 3 1-5 5-6 11 4 11 4 11 2 2-1 2-7.7-8-5.35-17a16.51 16.51 0 0 1 5.35-8z" fill="#fff" fill-opacity=".2"/><path d="M119.36 278.79s-3.86 5.71-4.86 10.71 1 12 1 12h10s-1-7 1-12 2.48-4.68 2.48-4.68l-1.48-5.32s-1.27 1.4-4.63.7-3.87-1.4-3.87-1.4" fill="#6d6e70" stroke="#000" stroke-miterlimit="10"/><path d="M114.92 286.75s3.58 4.75 11.58 2.75" stroke="#000" stroke-miterlimit="10" fill="none"/><circle cx="158.5" cy="257.5" r="1"/><circle cx="150" cy="255" r="1"/><circle cx="146" cy="251" r="1"/><circle cx="168" cy="254" r="1"/><circle cx="172" cy="247" r="1"/><path d="M125 280.39s-4.48 3.61-3.22 21.11H125s-1-11.5 4-16.5l-1.58-5.08zM202 281.28s7 11.72 7 20.72 4.79-1.37 4.79-1.37S215 286 206 278a6.19 6.19 0 0 1-4 3.28z" fill-opacity=".2"/><path d="M147 200s-1 42 2 50c0 0 12 9 20-2 0 0-3.5-26.5-3.5-48.5a77.11 77.11 0 0 0-18.5.5z" fill="#6d6e70" stroke="#000" stroke-miterlimit="10"/><path d="M166 211.5s-1.08 3-8.68 3-10.48-1.37-10.48-1.37M166 223.5s-1.08 3-8.68 3-10.48-1.37-10.48-1.37M147.5 238.5a15.39 15.39 0 0 0 8 2c5 0 11.32-1.58 12.16-4.29" stroke="#000" stroke-miterlimit="10" fill="none"/><path d="M158.67 199.17s.83 11.33 1.83 18.33 2 15 2 20 .33 13.93-1.33 16c0 0 4.33 0 7.33-6 0 0-3-26-3-33v-15z" fill-opacity=".2"/><circle cx="148" cy="286" r=".5"/><circle cx="165.5" cy="285.5" r=".5"/>
    <path d="M71.5 130.5a51.83 51.83 0 0 0 6 29c8 15 39 71 66 70s76-50 76-93-38-54-77-53-69 19-71 47z" fill="currentColor"/><path d="M116.5 88s-24.18 5.5-35.59 20.5-9.79 26-9.1 34.48 8.2 22.55 14.44 33 18.64 28.81 22.95 32.65 11.3 11.84 11.3 11.84.3-6.17-5.85-18.58S83.5 164 81.5 143.74s6-42.25 35-55.74z" fill-opacity=".4" fill="#fff"/><path d="M71.5 130.5a51.83 51.83 0 0 0 6 29c8 15 39 71 66 70s76-50 76-93-38-54-77-53-69 19-71 47z" stroke-width="2" fill="none" stroke="#000" stroke-miterlimit="10"/><path d="M75.44 115.88s33.06-15.38 65.06-14.38 65 7 67 30-3 34-9 50a89.16 89.16 0 0 1-16.32 27" fill="none" stroke="#000" stroke-miterlimit="10"/><path d="M80 118.5s-1.5 0-1.5 2 1.5 2 1.5 2 1.5 0 1.5-2-1.5-2-1.5-2zM73 133.5s-1.5 0-1.5 2 1.5 2 1.5 2 1.5 0 1.5-2-1.5-2-1.5-2zM98 112.5s-1.5 0-1.5 2 1.5 2 1.5 2 1.5 0 1.5-2-1.5-2-1.5-2zM118 109.5s-1.5 0-1.5 2 1.5 2 1.5 2 1.5 0 1.5-2-1.5-2-1.5-2zM143 107.5s-1.5 0-1.5 2 1.5 2 1.5 2 1.5 0 1.5-2-1.5-2-1.5-2zM164 107.5s-1.5 0-1.5 2 1.5 2 1.5 2 1.5 0 1.5-2-1.5-2-1.5-2zM184 112.5s-1.5 0-1.5 2 1.5 2 1.5 2 1.5 0 1.5-2-1.5-2-1.5-2zM201 125.5s-1.5 0-1.5 2 1.5 2 1.5 2 1.5 0 1.5-2-1.5-2-1.5-2zM202 149.5s-1.5 0-1.5 2 1.5 2 1.5 2 1.5 0 1.5-2-1.5-2-1.5-2zM195 173.5s-1.5 0-1.5 2 1.5 2 1.5 2 1.5 0 1.5-2-1.5-2-1.5-2zM185 195.5s-1.5 0-1.5 2 1.5 2 1.5 2 1.5 0 1.5-2-1.5-2-1.5-2zM169 210.5s-1.5 0-1.5 2 1.5 2 1.5 2 1.5 0 1.5-2-1.5-2-1.5-2zM141 220.5s-1.5 0-1.5 2 1.5 2 1.5 2 1.5 0 1.5-2-1.5-2-1.5-2zM115 209.5s-1.5 0-1.5 2 1.5 2 1.5 2 1.5 0 1.5-2-1.5-2-1.5-2z"/><path d="M199.5 115.5l-9-5.07s-2.5-.43.5 9.57 6.5 25.5 4.5 40.5-7 27-19 40-17.37 20.78-17.19 23.89 25.19-15.89 29.19-21.89 11.93-23.83 16-39 7-39-5-48z" fill-opacity=".2"/><path d="M201 100l-10 10s-23.39-8.18-41.7-8.09-33.49-1.25-53.4 6.42L76 116s-.08-2.83 6.71-9.66 18-18.34 48.89-22.09 49.94 2.2 58.92 6.73 12 7.09 12 7.09z" fill-opacity=".2" fill="#fff"/>
    <g fill="currentColor"><path d="M112.71 130h-.49c-2.46 0-13.35.38-14.22 11-1 12 8.33 13.5 12.26 13.5s12.75-3 12.75-13c-.01-11-10.3-11.5-10.3-11.5zM156.71 130h-.49c-2.46 0-13.35.38-14.22 11-1 12 8.33 13.5 12.26 13.5s12.75-3 12.75-13c-.01-11-10.3-11.5-10.3-11.5z"/></g><path d="M112.71 130h-.49c-2.46 0-13.35.38-14.22 11-1 12 8.33 13.5 12.26 13.5s12.75-3 12.75-13c-.01-11-10.3-11.5-10.3-11.5z" stroke="#000" fill-opacity=".55" stroke-miterlimit="10" stroke-width=".75"/><path d="M111.23 130.5s-9.8 1-9.8 10 4.9 11 10.78 11a11 11 0 0 0 10.78-11c.01-6-5.87-10-11.76-10z" fill="#461917" stroke-linecap="round" stroke-linejoin="round" stroke-width=".5" stroke="#000"/><ellipse cx="112.22" cy="140.5" rx="1.96" ry="3" fill="#ec1c24"/><path d="M156.71 130h-.49c-2.46 0-13.35.38-14.22 11-1 12 8.33 13.5 12.26 13.5s12.75-3 12.75-13c-.01-11-10.3-11.5-10.3-11.5z" stroke="#000" fill-opacity=".55" stroke-miterlimit="10" stroke-width=".75"/><path d="M155.23 130.5s-9.8 1-9.8 10 4.9 11 10.78 11a11 11 0 0 0 10.78-11c.01-6-5.87-10-11.76-10z" fill="#461917" stroke-linecap="round" stroke-linejoin="round" stroke-width=".5" stroke="#000"/><ellipse cx="156.22" cy="140.5" rx="1.96" ry="3" fill="#ec1c24"/>
    <path d="M126 180a129.54 129.54 0 0 1 3 25 19.93 19.93 0 0 0 10 1 24.23 24.23 0 0 0 8.5-3.5s-4-23-4-25c0 0-6 2-9 2-1.54 0-3.73.13-5.51.26S126 180 126 180z" fill="currentColor"/><path d="M126 180a129.54 129.54 0 0 1 3 25 19.93 19.93 0 0 0 10 1 24.23 24.23 0 0 0 8.5-3.5s-4-23-4-25c0 0-6 2-9 2-1.54 0-3.73.13-5.51.26S126 180 126 180z" stroke="#000" stroke-linecap="round" stroke-linejoin="round" fill="none"/><path d="M131.5 190.71a113.49 113.49 0 0 1 1 12.25l-3 1.54s-1-14-2.28-18.07c-.72-2.86-1.15-6.11-1.15-6.11l3.43.18s1 2.05 2 10.21zM129.29 205.11l3.21-1.61a32 32 0 0 0 7-1 53.36 53.36 0 0 0 7.56-2.57l.44 2.57s-4.93 3.27-7 3.14-2.43 2.07-11.21-.53z" stroke-width=".75" fill-opacity=".4" stroke="#000" stroke-linecap="round" stroke-linejoin="round"/><path d="M131.81 193.42c.93.47 1.84.92 1.69-.92 0 0 0-2 1-2s7-1 7-1a1 1 0 0 1 1 1c0 1 0 3 1 2a3.44 3.44 0 0 1 2.12-1" stroke-width=".75" stroke="#000" stroke-linecap="round" stroke-linejoin="round" fill="none"/>
    <path d="M122.5 94.5s4 3 13 3 16-6 16-6a26.39 26.39 0 0 0-1-7c-1-3-10.49-2.87-15.74-1.93s-11.26.93-12.26 3.93z" fill="currentColor"/><ellipse cx="133" cy="26" rx="7.5" ry="6.5" stroke-miterlimit="10" stroke="#000" fill="#be1e2d"/><path d="M140 25c.19.68-5.51 8.12-11.57 6.27a8.65 8.65 0 0 0 7.91.53C141 30 140 25 140 25z" fill="#561317"/><ellipse cx="130.22" cy="22.93" rx="4.46" ry="2.23" transform="matrix(.87 -.5 .5 .87 5.98 68.18)" fill="#ed293b"/><ellipse cx="133" cy="26" rx="7.5" ry="6.5" stroke-width=".75" fill="none" stroke-miterlimit="10" stroke="#000"/><path d="M135.5 82.5s-13 1-13 4 9 4 13 4 15-2 15-6-15-2-15-2z" stroke-linecap="round" stroke-linejoin="round" fill-opacity=".2" fill="#fff" stroke-width=".75" stroke="#000"/><path d="M122.5 94.5s4 3 13 3 16-6 16-6a26.39 26.39 0 0 0-1-7c-1-3-10.49-2.87-15.74-1.93s-11.26.93-12.26 3.93z" stroke-linecap="round" stroke-linejoin="round" fill="none" stroke="#000"/><path d="M148.19 93.77c.31-1.27-.69-6.27-.69-6.27s-7.41-2.59-8.2-2.3 1.86-.8 2-1.75.23-1.43.23-1.43 3.12 0 5.53.25 3.41 1.47 3.41 2.35l.64 2.58.36 4.29-3 2" fill-opacity=".2"/><path d="M133 29.24s-7.5 13.21-6.5 28.88a245.78 245.78 0 0 0 3 26.43s0 2 4 2a14 14 0 0 0 7-2 3.4 3.4 0 0 0 1-2c0-1-11-18.6-8-48.94 0 .03 1-5.84-.5-4.37z" fill="#e6e7e8" stroke-miterlimit="10" stroke="#000"/><path d="M130.5 46.5a94.41 94.41 0 0 0 2 18 145.29 145.29 0 0 0 6 19l.52 1.8s2.48-.8 2.48-2.8c0 0-6.45-14.41-7.23-22.71s-1.77-20.29-.77-26.29c0 0-.08-3.33.21-2.91S130 38 130.5 46.5z" fill="#d0d2d3"/><path d="M133 29.24s-7.5 13.21-6.5 28.88a245.78 245.78 0 0 0 3 26.43s0 2 4 2a14 14 0 0 0 7-2 3.4 3.4 0 0 0 1-2c0-1-11-18.6-8-48.94 0 .03 1-5.84-.5-4.37z" fill="none" stroke-miterlimit="10" stroke="#000"/><path d="M126 46s-9 1-9 6 10 5 13 5 12-1 12-6-8-5-8-5" stroke-linecap="round" stroke-linejoin="round" fill="none" stroke="#000"/>
</g>
</svg>
